<?xml version="1.0" encoding="UTF-8"?>
<svg id="Layer_1" data-name="Layer 1" xmlns="http://www.w3.org/2000/svg" viewBox="0 0 138.15 139.53">
  <defs>
    <style>
      .cls-1 {
        fill: #e1e1e1;
      }

      .cls-1, .cls-2, .cls-3 {
        stroke: #000;
        stroke-linejoin: round;
        stroke-width: 5px;
      }

      .cls-2 {
        fill: #181818;
      }

      .cls-3 {
        fill: #6e6e6e;
      }
    </style>
  </defs>
  <polygon class="cls-1" points="35.79 21.72 69.08 2.5 102.36 21.72 69.08 40.94 35.79 21.72"/>
  <polygon class="cls-3" points="69.08 79.37 35.79 60.16 35.79 21.72 69.08 40.94 69.08 79.37"/>
  <polygon class="cls-2" points="102.36 21.72 102.36 60.16 69.08 79.37 69.08 40.94 102.36 21.72"/>
  <g>
    <polygon class="cls-1" points="2.5 79.37 35.79 60.16 69.08 79.37 35.79 98.59 2.5 79.37"/>
    <polygon class="cls-3" points="35.79 137.03 2.5 117.81 2.5 79.37 35.79 98.59 35.79 137.03"/>
    <polygon class="cls-2" points="69.08 79.37 69.08 117.81 35.79 137.03 35.79 98.59 69.08 79.37"/>
  </g>
  <g>
    <polygon class="cls-1" points="69.08 79.37 102.36 60.16 135.65 79.37 102.36 98.59 69.08 79.37"/>
    <polygon class="cls-3" points="102.36 137.03 69.08 117.81 69.08 79.37 102.36 98.59 102.36 137.03"/>
    <polygon class="cls-2" points="135.65 79.37 135.65 117.81 102.36 137.03 102.36 98.59 135.65 79.37"/>
  </g>
</svg>