<?xml version="1.0" encoding="UTF-8" standalone="no"?>
<!-- Created with Inkscape (http://www.inkscape.org/) -->

<svg
   version="1.1"
   id="svg1"
   width="836.98761"
   height="128.84988"
   viewBox="0 0 836.98761 128.84988"
   xmlns="http://www.w3.org/2000/svg"
   xmlns:svg="http://www.w3.org/2000/svg">
  <defs
     id="defs1" />
  <g
     id="g1"
     transform="translate(-0.4605329,-0.76065471)">
    <path
       style="fill:#ffffff"
       d="m 3.5372579,127.02165 c -2.430053,-2.04476 -3.07672501,-3.37837 -3.07672501,-6.34502 0,-2.31012 0.67369901,-4.36292 1.75000001,-5.33234 0.9625,-0.86692 7.9878071,-2.96896 15.6117931,-4.67119 43.966932,-9.81664 67.084304,-20.215849 73.680014,-33.144509 2.80569,-5.49961 2.53613,-9.49396 -0.87061,-12.9007 -3.89244,-3.89244 -7.78547,-4.75559 -29.671197,-6.57861 -10.45,-0.87045 -20.108653,-2.11276 -21.463673,-2.76069 -3.692853,-1.7658 -5.690075,-5.91695 -4.489403,-9.33104 0.828797,-2.35667 2.761225,-3.52976 12.463014,-7.56569 14.034935,-5.83851 29.5787,-13.58073 31.208739,-15.5448 0.96794,-1.166308 0.81872,-1.746167 -0.756424,-2.939282 -2.728667,-2.066872 -15.324513,-1.054595 -28.088672,2.257372 -11.837669,3.07157 -15.426322,4.99866 -16.689188,8.96202 -0.522834,1.64085 -1.003209,12.20837 -1.0675,23.48337 -0.11678,20.48021 -0.114332,20.50435 2.536143,25 3.026071,5.13273 2.66657,7.42354 -1.704578,10.86188 -6.345347,4.99125 -12.831844,1.26862 -15.959613,-9.1593 -2.041706,-6.80701 -2.886581,-24.75253 -1.727957,-36.70258 1.029965,-10.62306 0.873926,-11.66374 -1.879911,-12.53777 -2.814837,-0.8934 -5.1758971,-4.95766 -4.3647491,-7.51336 0.390844,-1.23144 2.5012811,-2.953769 4.9426561,-4.033705 4.231341,-1.871724 4.26441,-1.926974 4.819899,-8.053009 0.744936,-8.2152898 3.009885,-11.2585718 8.689385,-11.67542782 5.489382,-0.402901 9.031832,2.54617702 9.031832,7.51897202 0,1.9373098 0.585603,3.5817888 1.384678,3.8884218 0.761573,0.292243 5.599073,-0.599684 10.75,-1.982062 29.877379,-8.0183238 46.327249,-7.3468018 49.917239,2.03774 2.27239,5.940226 -5.34791,16.16588 -18.9046,25.36804 -4.442006,3.01519 -7.944737,5.92495 -7.78385,6.46614 0.160887,0.54119 3.857424,1.56444 8.21453,2.27388 23.86491,3.88577 33.74911,18.95949 24.42138,37.24336 C 98.8329,94.641621 80.72526,105.675 50.176794,116.68765 39.357433,120.58801 9.6900779,129.61054 7.6845189,129.61054 c -0.588794,0 -2.455062,-1.165 -4.147261,-2.58889 z M 233.96014,120.20037 c -1.65021,-0.70585 -3.56478,-1.96343 -4.25459,-2.7946 -2.456,-2.9593 -5.22755,-17.21532 -6.36276,-32.728119 -1.84822,-25.25624 -0.16276,-31.23998 9.52967,-33.83231 5.11528,-1.36813 5.24435,-1.5632 8.51135,-12.86424 2.58602,-8.9454 7.39493,-16.02473 13.43228,-19.774032 7.86125,-4.881979 9.40458,-3.24899 21.70931,22.970552 10.17723,21.68616 21.59833,37.90536 26.22814,37.24684 2.80717,-0.39929 3.20843,-3.33235 4.22461,-30.88035 0.53825,-14.59145 0.42729,-21.57046 -0.38191,-24.02236 -1.52865,-4.631852 0.42488,-11.493999 4.04066,-14.1935628 3.18092,-2.374902 8.29635,-1.789181 11.64843,1.3337548 1.91959,1.788376 2.17031,3.050139 2.13356,10.737555 -0.0229,4.791073 -1.08843,23.661773 -2.36785,41.934873 -2.48123,35.43807 -2.65959,36.30966 -8.16914,39.919649 -3.14432,2.06023 -10.1353,2.07293 -14.0944,0.0256 -3.40313,-1.75982 -9.56485,-8.225949 -13.9785,-14.669079 -4.9396,-7.2109 -8.65202,-15.30226 -15.82907,-34.5 -3.7011,-9.9 -7.38549,-19.04007 -8.18754,-20.31127 -2.18707,-3.46641 -5.5503,-2.54573 -7.00848,1.91857 -1.55259,4.75335 -7.09965,48.94762 -8.42116,67.092669 -1.11352,15.28918 -1.75233,16.96578 -6.90222,18.11524 -1.375,0.3069 -3.85017,-0.0195 -5.50039,-0.72538 z m 120,0 c -4.29975,-1.83916 -5.27476,-3.39074 -7.43263,-11.82795 -2.31217,-9.040479 -4.58403,-37.468009 -3.6145,-45.227819 0.83807,-6.70769 4.0503,-11.0306 8.86814,-11.93443 5.20896,-0.9772 6.53418,-2.56706 8.71218,-10.45189 1.11699,-4.04374 2.91961,-9.09429 4.00582,-11.22344 3.80892,-7.46609 12.97265,-14.690271 17.00921,-13.409116 3.02738,0.96085 7.15496,7.748266 14.74619,24.248676 10.20572,22.1833 22.05669,38.98566 26.85025,38.06842 2.42604,-0.46422 2.93204,-4.55512 3.8977,-31.51221 0.55072,-15.37351 0.43974,-21.95305 -0.40479,-24 -1.60152,-3.881733 0.50046,-10.960379 4.03919,-13.6024228 3.22939,-2.411089 8.82242,-1.718853 12.03022,1.4889488 2.01435,2.014345 2.06882,2.715142 1.41425,18.194224 -0.37443,8.85455 -1.48321,27.63733 -2.46394,41.73951 -1.90332,27.36812 -2.27371,28.92443 -7.73553,32.503149 -3.14432,2.06023 -10.1353,2.07293 -14.0944,0.0256 -5.72674,-2.96141 -14.53412,-14.167869 -20.56679,-26.169079 -1.38234,-2.75 -5.54111,-13.1 -9.24171,-23 -3.70059,-9.9 -7.38456,-19.04007 -8.18661,-20.31127 -2.16408,-3.42997 -5.54972,-2.54757 -6.97554,1.81805 -1.57283,4.8157 -7.25373,50.36809 -8.41409,67.468479 -0.75735,11.16114 -1.30008,14.30818 -2.69527,15.6286 -2.52016,2.38512 -6.2986,2.96113 -9.74735,1.48597 z m 262.50193,-0.58829 c -1.71289,-1.71289 -2.00176,-2.89488 -1.54084,-6.30482 1.05025,-7.7699 2.54415,-29.978939 3.17153,-47.149549 1.03323,-28.27817 0.22704,-29.37794 -22.49462,-30.68624 -18.75199,-1.07972 -26.58095,-2.40217 -31.96758,-5.39986 l -4.32996,-2.40966 -14.67004,3.036 c -18.84628,3.90028 -37.8316,8.41883 -46.08899,10.96928 -7.44056,2.29816 -10.77082,1.91667 -15.10499,-1.7303 -3.2122,-2.70289 -4.00908,-7.52764 -1.89556,-11.47679 1.42705,-2.66646 6.65859,-4.73582 10.4858,-4.14771 1.68646,0.25915 10.46146,-0.6635 19.5,-2.05033 9.03854,-1.38684 22.48956,-3.304134 29.89116,-4.260658 12.91385,-1.668883 13.5918,-1.873481 16.78333,-5.065017 4.35662,-4.3566118 10.60705,-4.7134428 14.26978,-0.814647 2.81515,2.996592 5.84111,3.86502 20.98944,6.023818 16.51039,2.352904 37.6339,3.623783 68.25,4.106204 l 26.75,0.4215 v -3.942483 c 0,-3.17476 0.59914,-4.446628 3.07673,-6.531381 3.93105,-3.3077648 9.75364,-3.5387998 12.50709,-0.49627 2.94361,3.252644 4.06583,3.603143 18.94946,5.918398 19.27447,2.99828 39.34985,4.197169 77.91772,4.653196 28.67963,0.33911 33.18421,0.60066 34.75,2.01769 4.02512,3.64268 1.02908,7.74628 -6.77725,9.28259 -2.70806,0.53296 -15.04875,1.46694 -27.42375,2.07552 -24.34359,1.19717 -27.94898,1.99048 -30.32353,6.67225 -0.79229,1.56212 -1.70806,7.62385 -2.08297,13.78773 -0.7782,12.79447 -3.119,36.47089 -5.0906,51.489839 -1.12424,8.56402 -1.77612,10.81298 -3.55076,12.25 -2.82751,2.28958 -8.12851,2.24768 -11.01176,-0.087 l -2.28118,-1.84719 1.2363,-13.90281 c 0.67996,-7.646549 1.49458,-23.827179 1.81025,-35.956969 0.636,-24.43865 0.0197,-27.84648 -5.50394,-30.43472 -1.486,-0.6963 -9.22681,-1.67178 -17.20181,-2.16775 -7.975,-0.49596 -17.11562,-1.31813 -20.31249,-1.82705 -3.69522,-0.58826 -7.77367,-0.56277 -11.1965,0.07 -2.96121,0.54741 -16.04357,1.5658 -29.07191,2.2631 l -23.68789,1.26782 -2.77709,3.1081 c -3.00579,3.36406 -2.78217,2.02975 -4.98993,29.77468 -2.08043,26.14473 -4.84821,45.788929 -6.83345,48.499999 -2.53047,3.45564 -9.13015,4.00059 -12.1292,1.00154 z M 138.46053,103.96142 c -5.79749,-2.0016 -10.57842,-5.634949 -12.62669,-9.595859 -1.25386,-2.42471 -1.48165,-4.67942 -0.99825,-9.8807 0.57436,-6.17986 0.4581,-6.7925 -1.401,-7.38255 -3.04846,-0.96755 -5.18081,-4.81981 -4.39687,-7.9433 0.98393,-3.92027 4.63186,-5.93056 9.38309,-5.17081 3.87534,0.61969 3.97882,0.55303 7.59231,-4.89093 6.55654,-9.87785 13.52288,-13.92933 19.82858,-11.53191 2.52367,0.9595 2.78789,1.44989 2.24466,4.16606 -0.33864,1.69319 -1.96799,4.78593 -3.62077,6.87274 -1.65278,2.0868 -3.00506,4.30743 -3.00506,4.93473 0,1.33162 4.76377,0.86018 22,-2.17718 18.50625,-3.26116 18.24534,-3.25705 21.70982,-0.34189 3.47322,2.92252 4.8169,6.73802 3.34286,9.4923 -1.87133,3.49661 -26.72616,8.08359 -43.96168,8.11316 -10.77228,0.0185 -13.48187,1.22689 -13.89777,6.198 -0.25728,3.07514 0.13936,3.95883 2.45831,5.47701 4.4587,2.91904 20.25695,2.43312 32.34846,-0.99496 5.225,-1.48135 10.66776,-2.69368 12.09501,-2.69407 5.16916,-0.001 7.90639,6.87806 4.10534,10.31796 -2.69403,2.43807 -9.3241,4.499109 -21.56131,6.702609 -13.08375,2.35594 -25.39834,2.48422 -31.63904,0.32959 z m 344,0 c -5.79749,-2.0016 -10.57842,-5.634949 -12.62669,-9.595859 -1.25386,-2.42471 -1.48165,-4.67942 -0.99825,-9.8807 0.57436,-6.17986 0.4581,-6.7925 -1.401,-7.38255 -3.04846,-0.96755 -5.18081,-4.81981 -4.39687,-7.9433 0.98436,-3.92202 4.63161,-5.9306 9.38791,-5.17004 3.81966,0.61079 4.0264,0.49121 7.13152,-4.1247 6.90726,-10.26799 13.12728,-14.35884 19.1436,-12.59057 2.87586,0.84526 3.24122,1.34471 3.10219,4.24074 -0.0959,1.99678 -1.36894,4.79001 -3.25,7.13074 -1.70083,2.11645 -3.09241,4.33997 -3.09241,4.94117 0,1.26013 4.64335,0.8033 22,-2.16446 19.50172,-3.33454 18.25343,-3.31043 21.68971,-0.41899 3.49149,2.9379 4.83965,6.75 3.36297,9.50922 -1.90381,3.5573 -26.46161,8.08279 -44.02645,8.11316 -10.70346,0.0185 -13.41775,1.23467 -13.833,6.198 -0.25728,3.07514 0.13936,3.95883 2.45831,5.47701 4.4587,2.91904 20.25695,2.43312 32.34846,-0.99496 5.225,-1.48135 10.66776,-2.69368 12.09501,-2.69407 5.16916,-0.001 7.90639,6.87806 4.10534,10.31796 -2.69403,2.43807 -9.3241,4.499109 -21.56131,6.702609 -13.08375,2.35594 -25.39834,2.48422 -31.63904,0.32959 z M 143.48109,42.494511 c -1.36369,-0.5441 -3.32783,-1.75308 -4.36476,-2.68662 -6.97639,-6.28081 -0.79446,-16.98627 8.94502,-15.49039 1.70545,0.26194 9.13045,-0.46724 16.5,-1.62039 27.42633,-4.291539 51.1339,-7.13316 54.39994,-6.520448 1.85268,0.347564 4.13223,1.475842 5.06567,2.507284 1.57685,1.742395 1.58106,2.052547 0.0595,4.374744 -1.94494,2.96836 -4.09029,3.59996 -33.97005,10.00086 -12.01427,2.57372 -26.41427,5.99779 -32,7.60904 -11.22483,3.2379 -11.12698,3.2257 -14.63532,1.82592 z"
       id="path1" />
  </g>
</svg>
